<svg width="22" height="22" viewBox="0 0 22 22" fill="none" xmlns="http://www.w3.org/2000/svg">
<path fill-rule="evenodd" clip-rule="evenodd" d="M10.9497 0.143188C4.95585 0.143188 0.0928955 5.00614 0.0928955 11C0.0928955 16.9939 4.95585 21.8568 10.9497 21.8568C16.9318 21.8568 21.8065 16.9939 21.8065 11C21.8065 5.00614 16.9318 0.143188 10.9497 0.143188ZM18.1206 5.14728C19.4574 6.7752 20.1971 8.81136 20.2169 10.9177C19.9111 10.8589 16.8495 10.2346 13.7643 10.6236C13.6929 10.4698 13.6341 10.3052 13.5635 10.1405C13.3716 9.6876 13.1677 9.2399 12.9519 8.79788C16.3664 7.40821 17.9207 5.40694 18.1206 5.14728V5.14728ZM10.9497 1.74547C13.3047 1.74547 15.4598 2.62759 17.0965 4.07607C16.9318 4.3113 15.5304 6.1841 12.2335 7.41997C10.7136 4.62977 9.03077 2.34441 8.77111 1.99156C9.48524 1.82481 10.2164 1.74192 10.9497 1.74457V1.74547ZM7.00507 2.61583C7.25206 2.94606 8.90049 5.24227 10.4431 7.97367C6.10938 9.12811 2.28235 9.10459 1.8707 9.10459C2.47144 6.23115 4.41481 3.84084 7.00507 2.61583ZM1.67075 11.0118V10.7295C2.07155 10.7413 6.56899 10.8001 11.1976 9.41039C11.4681 9.9288 11.7151 10.4581 11.9504 10.9882C11.8327 11.0235 11.7034 11.0588 11.5857 11.0941C6.80512 12.6367 4.26101 16.8518 4.0493 17.2056C2.51796 15.5061 1.67057 13.2994 1.67075 11.0118V11.0118ZM10.9497 20.279C8.8064 20.279 6.82865 19.5488 5.26255 18.3247C5.42721 17.9828 7.31087 14.3557 12.5393 12.5308C12.5629 12.5191 12.5755 12.5191 12.5981 12.5073C13.9055 15.8865 14.4348 18.7246 14.5768 19.5371C13.4576 20.0202 12.2335 20.279 10.9497 20.279ZM16.1194 18.6893C16.0253 18.1239 15.5304 15.416 14.3171 12.083C17.2259 11.6243 19.7691 12.3779 20.0875 12.4838C19.6867 15.0623 18.203 17.2879 16.1194 18.6893Z" fill="#959595"/>
</svg>
