<svg width="23" height="22" viewBox="0 0 23 22" fill="none" xmlns="http://www.w3.org/2000/svg">
<path d="M21.9265 0H1.68652C1.19977 0 0.806519 0.39325 0.806519 0.88V21.12C0.806519 21.6068 1.19977 22 1.68652 22H21.9265C22.4133 22 22.8065 21.6068 22.8065 21.12V0.88C22.8065 0.39325 22.4133 0 21.9265 0ZM7.33227 18.7468H4.06802V8.24725H7.33227V18.7468ZM5.70152 6.81175C5.32732 6.81175 4.96152 6.70079 4.65038 6.49289C4.33924 6.28499 4.09674 5.9895 3.95354 5.64379C3.81034 5.29807 3.77287 4.91765 3.84587 4.55064C3.91888 4.18363 4.09907 3.84651 4.36367 3.5819C4.62827 3.3173 4.9654 3.13711 5.33241 3.0641C5.69942 2.9911 6.07984 3.02857 6.42556 3.17177C6.77127 3.31497 7.06676 3.55747 7.27466 3.86861C7.48255 4.17975 7.59352 4.54555 7.59352 4.91975C7.59077 5.96475 6.74377 6.81175 5.70152 6.81175ZM19.5533 18.7468H16.2918V13.64C16.2918 12.4218 16.2698 10.857 14.595 10.857C12.8983 10.857 12.637 12.1825 12.637 13.552V18.7468H9.37827V8.24725H12.5078V9.68275H12.5518C12.9863 8.85775 14.0505 7.986 15.64 7.986C18.9455 7.986 19.5533 10.1612 19.5533 12.9882V18.7468Z" fill="#959595"/>
</svg>
