<svg width="28" height="22" viewBox="0 0 28 22" fill="none" xmlns="http://www.w3.org/2000/svg">
<path d="M27.5167 2.71882C26.5344 3.15407 25.4792 3.44816 24.3699 3.58109C25.5145 2.89621 26.3708 1.81829 26.7791 0.548462C25.7037 1.18721 24.5268 1.63681 23.2995 1.87773C22.4741 0.996491 21.3809 0.412389 20.1896 0.216113C18.9982 0.019837 17.7754 0.222368 16.711 0.792263C15.6466 1.36216 14.8001 2.26753 14.3029 3.36782C13.8058 4.4681 13.6858 5.70175 13.9616 6.87721C11.7826 6.76781 9.65104 6.20146 7.70512 5.21492C5.7592 4.22838 4.04246 2.8437 2.66632 1.15075C2.19578 1.96243 1.92522 2.90351 1.92522 3.90576C1.9247 4.80801 2.14689 5.69644 2.57207 6.49223C2.99726 7.28802 3.6123 7.96655 4.36262 8.46763C3.49244 8.43994 2.64147 8.20482 1.88052 7.78182V7.8524C1.88044 9.11785 2.31816 10.3444 3.11943 11.3238C3.9207 12.3032 5.03616 12.9753 6.27653 13.226C5.46931 13.4444 4.62299 13.4766 3.8015 13.3201C4.15146 14.4089 4.83315 15.3611 5.75114 16.0432C6.66913 16.7254 7.77746 17.1034 8.92096 17.1244C6.97979 18.6482 4.58246 19.4748 2.11462 19.4712C1.67746 19.4713 1.24068 19.4458 0.806519 19.3947C3.31152 21.0053 6.22753 21.8601 9.20564 21.8568C19.2869 21.8568 24.7981 13.5071 24.7981 6.26551C24.7981 6.03024 24.7922 5.79262 24.7817 5.55735C25.8537 4.78211 26.779 3.82211 27.5143 2.72235L27.5167 2.71882V2.71882Z" fill="#959595"/>
</svg>
