<svg width="23" height="22" viewBox="0 0 23 22" fill="none" xmlns="http://www.w3.org/2000/svg">
<path fill-rule="evenodd" clip-rule="evenodd" d="M16.2392 13.1551C15.9696 13.0203 14.6478 12.3707 14.4017 12.2802C14.1556 12.1907 13.9765 12.1463 13.7965 12.4159C13.6173 12.6837 13.1025 13.2899 12.946 13.469C12.7886 13.6491 12.6321 13.6708 12.3634 13.5369C12.0947 13.4012 11.2279 13.118 10.201 12.2024C9.40217 11.4895 8.86204 10.6092 8.70552 10.3396C8.54901 10.0709 8.68833 9.9252 8.82314 9.7913C8.94437 9.67097 9.09184 9.47736 9.22665 9.32084C9.36145 9.16342 9.40579 9.05123 9.49536 8.87119C9.58583 8.69205 9.54059 8.53553 9.47274 8.40073C9.40579 8.26592 8.86838 6.9423 8.644 6.40398C8.42596 5.88014 8.2043 5.95161 8.03964 5.94257C7.88222 5.93533 7.70308 5.93352 7.52394 5.93352C7.3448 5.93352 7.05348 6.00047 6.80739 6.27008C6.5604 6.53879 5.86647 7.18929 5.86647 8.51291C5.86647 9.83563 6.82911 11.114 6.96391 11.2941C7.09872 11.4732 8.85933 14.1892 11.5563 15.3536C12.1987 15.6305 12.699 15.796 13.089 15.9191C13.7331 16.1244 14.3194 16.0955 14.7826 16.0258C15.2983 15.9489 16.3731 15.3753 16.5975 14.7474C16.821 14.1195 16.821 13.5812 16.754 13.469C16.6871 13.3569 16.5079 13.2899 16.2383 13.1551H16.2392ZM11.3338 19.8528H11.3302C9.72826 19.8531 8.15578 19.4225 6.77754 18.6061L6.45183 18.4125L3.06632 19.301L3.97015 16.0005L3.75754 15.6621C2.86198 14.2366 2.38804 12.5867 2.39048 10.9032C2.39229 5.97242 6.40388 1.96083 11.3374 1.96083C13.7259 1.96083 15.9714 2.89271 17.6597 4.58275C18.4924 5.41201 19.1524 6.39816 19.6015 7.48414C20.0506 8.57012 20.2799 9.73437 20.2762 10.9096C20.2743 15.8403 16.2628 19.8528 11.3338 19.8528V19.8528ZM18.9444 3.29894C17.9475 2.29552 16.7615 1.49991 15.4549 0.95821C14.1483 0.416513 12.7473 0.139501 11.3329 0.143226C5.40325 0.143226 0.57559 4.96998 0.57378 10.9023C0.572875 12.7986 1.06776 14.6497 2.00959 16.281L0.483307 21.8568L6.18675 20.3604C7.76449 21.22 9.53253 21.6704 11.3293 21.6705H11.3338C17.2634 21.6705 22.0911 16.8437 22.0929 10.9105C22.0972 9.49661 21.8212 8.09592 21.2808 6.78943C20.7404 5.48293 19.9463 4.29656 18.9444 3.29894" fill="#959595"/>
</svg>
