<svg width="30" height="18" viewBox="0 0 30 18" fill="none" xmlns="http://www.w3.org/2000/svg">
<path d="M19.4511 1.19067H26.6875V2.92648H19.4511V1.19067ZM12.2002 8.05858C13.7998 7.30185 14.6377 6.15063 14.6377 4.37179C14.6377 0.853556 11.9898 0 8.93198 0H0.516724V17.6593H9.16776C12.4105 17.6593 15.4538 16.1172 15.4538 12.5308C15.4538 10.3144 14.3946 8.67543 12.2002 8.05858V8.05858ZM4.44143 3.01255H8.1231C9.54136 3.01255 10.8145 3.40347 10.8145 5.03168C10.8145 6.53078 9.82429 7.13329 8.42054 7.13329H4.44143V3.01255ZM8.63092 14.6611H4.4378V9.79797H8.71435C10.4409 9.79797 11.5327 10.5117 11.5327 12.3192C11.5327 14.098 10.2305 14.6611 8.63092 14.6611V14.6611ZM29.5167 11.4513C29.5167 7.66766 27.2787 4.51524 23.2307 4.51524C19.2951 4.51524 16.6182 7.44531 16.6182 11.2863C16.6182 15.2672 19.1536 18 23.2307 18C26.3175 18 28.3161 16.6264 29.2773 13.6964H26.147C25.806 14.7902 24.4204 15.364 23.3431 15.364C21.2611 15.364 20.1729 14.159 20.1729 12.1112H29.4913C29.5022 11.8996 29.5167 11.6772 29.5167 11.4513V11.4513ZM20.1729 9.8948C20.2853 8.21279 21.4207 7.16198 23.1182 7.16198C24.9028 7.16198 25.7951 8.19845 25.9511 9.8948H20.1729Z" fill="#959595"/>
</svg>
